<mxfile host="Electron" modified="2024-01-04T23:12:51.922Z" agent="Mozilla/5.0 (Windows NT 10.0; Win64; x64) AppleWebKit/537.36 (KHTML, like Gecko) draw.io/22.1.16 Chrome/120.0.6099.109 Electron/28.1.0 Safari/537.36" etag="sdhIfm4fzgl8SwKurNgR" version="22.1.16" type="device">
  <diagram name="Page-1" id="W6wwgODH2DVGgfq05W44">
    <mxGraphModel dx="977" dy="671" grid="1" gridSize="10" guides="1" tooltips="1" connect="1" arrows="1" fold="1" page="1" pageScale="1" pageWidth="850" pageHeight="1100" math="0" shadow="0">
      <root>
        <mxCell id="0" />
        <mxCell id="1" parent="0" />
        <mxCell id="fBeSizHoTM2zkZ8skBRZ-5" style="edgeStyle=orthogonalEdgeStyle;rounded=0;orthogonalLoop=1;jettySize=auto;html=1;exitX=0.75;exitY=0.75;exitDx=0;exitDy=0;exitPerimeter=0;" parent="1" target="fBeSizHoTM2zkZ8skBRZ-2" edge="1">
          <mxGeometry relative="1" as="geometry">
            <mxPoint x="309.9999999999999" y="45" as="sourcePoint" />
            <Array as="points">
              <mxPoint x="340" y="46" />
              <mxPoint x="340" y="30" />
            </Array>
          </mxGeometry>
        </mxCell>
        <mxCell id="fBeSizHoTM2zkZ8skBRZ-2" value="data&lt;br&gt;&lt;br&gt;ptr" style="rounded=0;whiteSpace=wrap;html=1;fillColor=#fad7ac;strokeColor=#b46504;fontFamily=consolas;" parent="1" vertex="1">
          <mxGeometry x="360" width="40" height="60" as="geometry" />
        </mxCell>
        <mxCell id="fBeSizHoTM2zkZ8skBRZ-6" style="edgeStyle=orthogonalEdgeStyle;rounded=0;orthogonalLoop=1;jettySize=auto;html=1;exitX=0.75;exitY=0.75;exitDx=0;exitDy=0;exitPerimeter=0;" parent="1" source="fBeSizHoTM2zkZ8skBRZ-2" target="fBeSizHoTM2zkZ8skBRZ-3" edge="1">
          <mxGeometry relative="1" as="geometry">
            <Array as="points">
              <mxPoint x="440" y="45" />
              <mxPoint x="440" y="30" />
            </Array>
          </mxGeometry>
        </mxCell>
        <mxCell id="fBeSizHoTM2zkZ8skBRZ-3" value="data&lt;br&gt;&lt;br&gt;ptr" style="rounded=0;whiteSpace=wrap;html=1;fillColor=#fad7ac;strokeColor=#b46504;fontFamily=consolas;" parent="1" vertex="1">
          <mxGeometry x="480" width="40" height="60" as="geometry" />
        </mxCell>
        <mxCell id="fBeSizHoTM2zkZ8skBRZ-7" style="edgeStyle=orthogonalEdgeStyle;rounded=0;orthogonalLoop=1;jettySize=auto;html=1;exitX=0.75;exitY=0.75;exitDx=0;exitDy=0;exitPerimeter=0;" parent="1" source="fBeSizHoTM2zkZ8skBRZ-3" edge="1">
          <mxGeometry relative="1" as="geometry">
            <mxPoint x="560" y="30" as="targetPoint" />
            <Array as="points">
              <mxPoint x="540" y="45" />
              <mxPoint x="540" y="30" />
            </Array>
          </mxGeometry>
        </mxCell>
        <mxCell id="fBeSizHoTM2zkZ8skBRZ-10" value="data&lt;br&gt;&lt;br&gt;ptr" style="rounded=0;whiteSpace=wrap;html=1;fillColor=#b1ddf0;strokeColor=#10739e;fontFamily=consolas;" parent="1" vertex="1">
          <mxGeometry x="420" y="70" width="40" height="60" as="geometry" />
        </mxCell>
        <mxCell id="aioqfFlxGVhTzHTqrTUD-1" style="edgeStyle=orthogonalEdgeStyle;rounded=0;orthogonalLoop=1;jettySize=auto;html=1;exitX=0.75;exitY=0.75;exitDx=0;exitDy=0;exitPerimeter=0;" edge="1" target="aioqfFlxGVhTzHTqrTUD-2" parent="1">
          <mxGeometry relative="1" as="geometry">
            <mxPoint x="309.9999999999999" y="215" as="sourcePoint" />
            <Array as="points">
              <mxPoint x="340" y="216" />
              <mxPoint x="340" y="200" />
            </Array>
          </mxGeometry>
        </mxCell>
        <mxCell id="aioqfFlxGVhTzHTqrTUD-2" value="data&lt;br&gt;&lt;br&gt;ptr" style="rounded=0;whiteSpace=wrap;html=1;fillColor=#fad7ac;strokeColor=#b46504;fontFamily=consolas;" vertex="1" parent="1">
          <mxGeometry x="360" y="170" width="40" height="60" as="geometry" />
        </mxCell>
        <mxCell id="aioqfFlxGVhTzHTqrTUD-4" style="edgeStyle=orthogonalEdgeStyle;rounded=0;orthogonalLoop=1;jettySize=auto;html=1;exitX=0.75;exitY=0.75;exitDx=0;exitDy=0;exitPerimeter=0;" edge="1" source="aioqfFlxGVhTzHTqrTUD-2" target="aioqfFlxGVhTzHTqrTUD-5" parent="1">
          <mxGeometry relative="1" as="geometry">
            <Array as="points">
              <mxPoint x="440" y="215" />
              <mxPoint x="440" y="200" />
            </Array>
          </mxGeometry>
        </mxCell>
        <mxCell id="aioqfFlxGVhTzHTqrTUD-5" value="data&lt;br&gt;&lt;br&gt;ptr" style="rounded=0;whiteSpace=wrap;html=1;fillColor=#fad7ac;strokeColor=#b46504;fontFamily=consolas;" vertex="1" parent="1">
          <mxGeometry x="480" y="170" width="40" height="60" as="geometry" />
        </mxCell>
        <mxCell id="aioqfFlxGVhTzHTqrTUD-6" style="edgeStyle=orthogonalEdgeStyle;rounded=0;orthogonalLoop=1;jettySize=auto;html=1;exitX=0.75;exitY=0.75;exitDx=0;exitDy=0;exitPerimeter=0;" edge="1" source="aioqfFlxGVhTzHTqrTUD-5" parent="1">
          <mxGeometry relative="1" as="geometry">
            <mxPoint x="560" y="200" as="targetPoint" />
            <Array as="points">
              <mxPoint x="540" y="215" />
              <mxPoint x="540" y="200" />
            </Array>
          </mxGeometry>
        </mxCell>
        <mxCell id="aioqfFlxGVhTzHTqrTUD-7" value="data&lt;br&gt;&lt;br&gt;ptr" style="rounded=0;whiteSpace=wrap;html=1;fillColor=#b1ddf0;strokeColor=#10739e;fontFamily=consolas;" vertex="1" parent="1">
          <mxGeometry x="420" y="240" width="40" height="60" as="geometry" />
        </mxCell>
        <mxCell id="aioqfFlxGVhTzHTqrTUD-8" style="edgeStyle=orthogonalEdgeStyle;rounded=0;orthogonalLoop=1;jettySize=auto;html=1;exitX=0.75;exitY=0.75;exitDx=0;exitDy=0;exitPerimeter=0;" edge="1" source="aioqfFlxGVhTzHTqrTUD-7" target="aioqfFlxGVhTzHTqrTUD-5" parent="1">
          <mxGeometry relative="1" as="geometry">
            <Array as="points">
              <mxPoint x="500" y="285" />
            </Array>
          </mxGeometry>
        </mxCell>
        <mxCell id="aioqfFlxGVhTzHTqrTUD-9" style="edgeStyle=orthogonalEdgeStyle;rounded=0;orthogonalLoop=1;jettySize=auto;html=1;exitX=0.75;exitY=0.75;exitDx=0;exitDy=0;exitPerimeter=0;" edge="1" target="aioqfFlxGVhTzHTqrTUD-10" parent="1">
          <mxGeometry relative="1" as="geometry">
            <mxPoint x="309.9999999999999" y="385" as="sourcePoint" />
            <Array as="points">
              <mxPoint x="340" y="386" />
              <mxPoint x="340" y="370" />
            </Array>
          </mxGeometry>
        </mxCell>
        <mxCell id="aioqfFlxGVhTzHTqrTUD-10" value="data&lt;br&gt;&lt;br&gt;ptr" style="rounded=0;whiteSpace=wrap;html=1;fillColor=#fad7ac;strokeColor=#b46504;fontFamily=consolas;" vertex="1" parent="1">
          <mxGeometry x="360" y="340" width="40" height="60" as="geometry" />
        </mxCell>
        <mxCell id="aioqfFlxGVhTzHTqrTUD-11" style="edgeStyle=orthogonalEdgeStyle;rounded=0;orthogonalLoop=1;jettySize=auto;html=1;exitX=0.5;exitY=0.833;exitDx=0;exitDy=0;exitPerimeter=0;" edge="1" source="aioqfFlxGVhTzHTqrTUD-10" target="aioqfFlxGVhTzHTqrTUD-15" parent="1">
          <mxGeometry relative="1" as="geometry">
            <Array as="points">
              <mxPoint x="380" y="440" />
            </Array>
          </mxGeometry>
        </mxCell>
        <mxCell id="aioqfFlxGVhTzHTqrTUD-13" value="data&lt;br&gt;&lt;br&gt;ptr" style="rounded=0;whiteSpace=wrap;html=1;fillColor=#fad7ac;strokeColor=#b46504;fontFamily=consolas;" vertex="1" parent="1">
          <mxGeometry x="480" y="340" width="40" height="60" as="geometry" />
        </mxCell>
        <mxCell id="aioqfFlxGVhTzHTqrTUD-14" style="edgeStyle=orthogonalEdgeStyle;rounded=0;orthogonalLoop=1;jettySize=auto;html=1;exitX=0.75;exitY=0.75;exitDx=0;exitDy=0;exitPerimeter=0;" edge="1" source="aioqfFlxGVhTzHTqrTUD-13" parent="1">
          <mxGeometry relative="1" as="geometry">
            <mxPoint x="560" y="370" as="targetPoint" />
            <Array as="points">
              <mxPoint x="540" y="385" />
              <mxPoint x="540" y="370" />
            </Array>
          </mxGeometry>
        </mxCell>
        <mxCell id="aioqfFlxGVhTzHTqrTUD-15" value="data&lt;br&gt;&lt;br&gt;ptr" style="rounded=0;whiteSpace=wrap;html=1;fillColor=#b1ddf0;strokeColor=#10739e;fontFamily=consolas;" vertex="1" parent="1">
          <mxGeometry x="420" y="410" width="40" height="60" as="geometry" />
        </mxCell>
        <mxCell id="aioqfFlxGVhTzHTqrTUD-16" style="edgeStyle=orthogonalEdgeStyle;rounded=0;orthogonalLoop=1;jettySize=auto;html=1;exitX=0.75;exitY=0.75;exitDx=0;exitDy=0;exitPerimeter=0;" edge="1" source="aioqfFlxGVhTzHTqrTUD-15" target="aioqfFlxGVhTzHTqrTUD-13" parent="1">
          <mxGeometry relative="1" as="geometry">
            <Array as="points">
              <mxPoint x="500" y="455" />
            </Array>
          </mxGeometry>
        </mxCell>
        <mxCell id="aioqfFlxGVhTzHTqrTUD-18" value="" style="shape=flexArrow;endArrow=classic;html=1;rounded=0;fillColor=#f5f5f5;gradientColor=#b3b3b3;strokeColor=#666666;" edge="1" parent="1">
          <mxGeometry width="50" height="50" relative="1" as="geometry">
            <mxPoint x="580" as="sourcePoint" />
            <mxPoint x="580" y="470" as="targetPoint" />
          </mxGeometry>
        </mxCell>
      </root>
    </mxGraphModel>
  </diagram>
</mxfile>
